<svg xmlns="http://www.w3.org/2000/svg" width="23" height="21" viewBox="0 0 23 21" fill="none"><path d="M21.4286 0.5H1.42857C1.04969 0.5 0.686328 0.65051 0.418419 0.918419C0.15051 1.18633 0 1.54969 0 1.92857V19.0714C0 19.4503 0.15051 19.8137 0.418419 20.0816C0.686328 20.3495 1.04969 20.5 1.42857 20.5H21.4286C21.8075 20.5 22.1708 20.3495 22.4387 20.0816C22.7066 19.8137 22.8571 19.4503 22.8571 19.0714V1.92857C22.8571 1.54969 22.7066 1.18633 22.4387 0.918419C22.1708 0.65051 21.8075 0.5 21.4286 0.5ZM4.94286 3.35714C5.36667 3.35714 5.78097 3.48282 6.13337 3.71828C6.48576 3.95374 6.76041 4.28841 6.9226 4.67996C7.08479 5.07152 7.12722 5.50238 7.04454 5.91805C6.96186 6.33372 6.75777 6.71555 6.45809 7.01523C6.1584 7.31491 5.77658 7.519 5.36091 7.60168C4.94523 7.68437 4.51438 7.64193 4.12282 7.47974C3.73127 7.31755 3.3966 7.0429 3.16114 6.69051C2.92568 6.33812 2.8 5.92382 2.8 5.5C2.8 4.93168 3.02576 4.38663 3.42763 3.98477C3.82949 3.58291 4.37454 3.35714 4.94286 3.35714ZM2.85714 16.9286V14L7.14286 9.65714C7.27669 9.52411 7.45772 9.44943 7.64643 9.44943C7.83513 9.44943 8.01617 9.52411 8.15 9.65714L10 11.4643L4.51429 16.9286H2.85714ZM20 16.9286H6.53571L10.9857 12.4786L14.8429 8.62143C14.9767 8.48839 15.1577 8.41372 15.3464 8.41372C15.5351 8.41372 15.7162 8.48839 15.85 8.62143L20 12.7714V16.9286Z" fill="#0099FF"/></svg>