<svg xmlns="http://www.w3.org/2000/svg" width="25" height="25" viewBox="0 0 25 25" fill="none"><path d="M19.611 13.2631L13.9467 11.1794C13.9181 11.1685 13.8921 11.1518 13.8704 11.1303C13.8487 11.1087 13.8317 11.0829 13.8206 11.0544L11.7369 5.38903C11.6289 5.09615 11.4337 4.84343 11.1776 4.66493C10.9215 4.48643 10.6168 4.39073 10.3046 4.39073C9.99247 4.39073 9.68781 4.48643 9.43172 4.66493C9.17562 4.84343 8.98041 5.09615 8.87239 5.38903L6.78872 11.0533C6.77782 11.0819 6.76107 11.1079 6.73954 11.1296C6.71801 11.1513 6.69218 11.1683 6.6637 11.1794L0.998305 13.2631C0.705427 13.3711 0.452705 13.5663 0.274203 13.8224C0.0957005 14.0785 0 14.3832 0 14.6954C0 15.0075 0.0957005 15.3122 0.274203 15.5683C0.452705 15.8244 0.705427 16.0196 0.998305 16.1276L6.6626 18.2113C6.69118 18.2222 6.71716 18.2389 6.73888 18.2605C6.7606 18.282 6.77757 18.3078 6.78872 18.3363L8.87239 24.0017C8.98041 24.2946 9.17562 24.5473 9.43172 24.7258C9.68781 24.9043 9.99247 25 10.3046 25C10.6168 25 10.9215 24.9043 11.1776 24.7258C11.4337 24.5473 11.6289 24.2946 11.7369 24.0017L13.8206 18.3374C13.8315 18.3088 13.8482 18.2828 13.8697 18.2611C13.8913 18.2394 13.9171 18.2224 13.9456 18.2113L19.611 16.1276C19.9038 16.0196 20.1566 15.8244 20.3351 15.5683C20.5136 15.3122 20.6093 15.0075 20.6093 14.6954C20.6093 14.3832 20.5136 14.0785 20.3351 13.8224C20.1566 13.5663 19.9038 13.3711 19.611 13.2631ZM19.1559 14.8928L13.4905 16.9764C13.2831 17.053 13.0949 17.1737 12.9387 17.3301C12.7825 17.4865 12.6621 17.6749 12.5857 17.8823L10.502 23.5466C10.4871 23.5869 10.4601 23.6216 10.4249 23.6462C10.3896 23.6707 10.3476 23.6839 10.3046 23.6839C10.2617 23.6839 10.2197 23.6707 10.1844 23.6462C10.1491 23.6216 10.1222 23.5869 10.1072 23.5466L8.02357 17.8812C7.94669 17.6742 7.82607 17.4862 7.66993 17.3301C7.51379 17.1739 7.32581 17.0533 7.11881 16.9764L1.45452 14.8928C1.41422 14.8778 1.37947 14.8509 1.35493 14.8156C1.33039 14.7803 1.31723 14.7383 1.31723 14.6954C1.31723 14.6524 1.33039 14.6104 1.35493 14.5751C1.37947 14.5399 1.41422 14.5129 1.45452 14.498L7.11991 12.4143C7.32724 12.3377 7.51549 12.217 7.67168 12.0606C7.82788 11.9043 7.9483 11.7159 8.02466 11.5084L10.1083 5.84415C10.1233 5.80385 10.1502 5.7691 10.1855 5.74456C10.2208 5.72001 10.2628 5.70686 10.3057 5.70686C10.3487 5.70686 10.3907 5.72001 10.426 5.74456C10.4612 5.7691 10.4882 5.80385 10.5031 5.84415L12.5868 11.5095C12.6634 11.7169 12.7841 11.9051 12.9405 12.0613C13.0968 12.2175 13.2852 12.3379 13.4927 12.4143L19.1569 14.498C19.1972 14.5129 19.232 14.5399 19.2565 14.5751C19.2811 14.6104 19.2942 14.6524 19.2942 14.6954C19.2942 14.7383 19.2811 14.7803 19.2565 14.8156C19.232 14.8509 19.1972 14.8778 19.1569 14.8928H19.1559ZM14.03 3.29001C14.03 3.11549 14.0993 2.94813 14.2227 2.82473C14.3461 2.70133 14.5135 2.63201 14.688 2.63201H16.662V0.658001C16.662 0.483489 16.7314 0.316123 16.8547 0.192724C16.9781 0.069325 17.1455 0 17.32 0C17.4945 0 17.6619 0.069325 17.7853 0.192724C17.9087 0.316123 17.978 0.483489 17.978 0.658001V2.63201H19.952C20.1265 2.63201 20.2939 2.70133 20.4173 2.82473C20.5407 2.94813 20.61 3.11549 20.61 3.29001C20.61 3.46452 20.5407 3.63188 20.4173 3.75528C20.2939 3.87868 20.1265 3.94801 19.952 3.94801H17.978V5.92201C17.978 6.09652 17.9087 6.26389 17.7853 6.38729C17.6619 6.51069 17.4945 6.58001 17.32 6.58001C17.1455 6.58001 16.9781 6.51069 16.8547 6.38729C16.7314 6.26389 16.662 6.09652 16.662 5.92201V3.94801H14.688C14.5135 3.94801 14.3461 3.87868 14.2227 3.75528C14.0993 3.63188 14.03 3.46452 14.03 3.29001ZM24.9967 8.55402C24.9967 8.72853 24.9274 8.8959 24.804 9.01929C24.6806 9.14269 24.5132 9.21202 24.3387 9.21202H23.242V10.3087C23.242 10.4832 23.1727 10.6506 23.0493 10.774C22.9259 10.8974 22.7586 10.9667 22.584 10.9667C22.4095 10.9667 22.2422 10.8974 22.1188 10.774C21.9954 10.6506 21.926 10.4832 21.926 10.3087V9.21202H20.8294C20.6549 9.21202 20.4875 9.14269 20.3641 9.01929C20.2407 8.8959 20.1714 8.72853 20.1714 8.55402C20.1714 8.3795 20.2407 8.21214 20.3641 8.08874C20.4875 7.96534 20.6549 7.89602 20.8294 7.89602H21.926V6.79935C21.926 6.62483 21.9954 6.45747 22.1188 6.33407C22.2422 6.21067 22.4095 6.14135 22.584 6.14135C22.7586 6.14135 22.9259 6.21067 23.0493 6.33407C23.1727 6.45747 23.242 6.62483 23.242 6.79935V7.89602H24.3387C24.5132 7.89602 24.6806 7.96534 24.804 8.08874C24.9274 8.21214 24.9967 8.3795 24.9967 8.55402Z" fill="black"/></svg>