<svg xmlns="http://www.w3.org/2000/svg" width="50" height="50" viewBox="0 0 50 50" fill="none"><path d="M16.2501 4.16699H33.7501C40.4167 4.16699 45.8334 9.58366 45.8334 16.2503V33.7503C45.8334 36.955 44.5604 40.0285 42.2943 42.2945C40.0282 44.5606 36.9548 45.8337 33.7501 45.8337H16.2501C9.58342 45.8337 4.16675 40.417 4.16675 33.7503V16.2503C4.16675 13.0456 5.43981 9.97218 7.70587 7.70612C9.97194 5.44005 13.0454 4.16699 16.2501 4.16699ZM15.8334 8.33366C13.8443 8.33366 11.9366 9.12384 10.5301 10.5304C9.12359 11.9369 8.33341 13.8445 8.33341 15.8337V34.167C8.33341 38.3128 11.6876 41.667 15.8334 41.667H34.1667C36.1559 41.667 38.0635 40.8768 39.4701 39.4703C40.8766 38.0638 41.6667 36.1561 41.6667 34.167V15.8337C41.6667 11.6878 38.3126 8.33366 34.1667 8.33366H15.8334ZM35.9376 11.4587C36.6282 11.4587 37.2906 11.733 37.779 12.2214C38.2674 12.7098 38.5417 13.3722 38.5417 14.0628C38.5417 14.7535 38.2674 15.4159 37.779 15.9042C37.2906 16.3926 36.6282 16.667 35.9376 16.667C35.2469 16.667 34.5845 16.3926 34.0962 15.9042C33.6078 15.4159 33.3334 14.7535 33.3334 14.0628C33.3334 13.3722 33.6078 12.7098 34.0962 12.2214C34.5845 11.733 35.2469 11.4587 35.9376 11.4587ZM25.0001 14.5837C27.7628 14.5837 30.4123 15.6811 32.3658 17.6346C34.3193 19.5881 35.4167 22.2377 35.4167 25.0003C35.4167 27.763 34.3193 30.4125 32.3658 32.366C30.4123 34.3195 27.7628 35.417 25.0001 35.417C22.2374 35.417 19.5879 34.3195 17.6344 32.366C15.6809 30.4125 14.5834 27.763 14.5834 25.0003C14.5834 22.2377 15.6809 19.5881 17.6344 17.6346C19.5879 15.6811 22.2374 14.5837 25.0001 14.5837ZM25.0001 18.7503C23.3425 18.7503 21.7528 19.4088 20.5807 20.5809C19.4086 21.753 18.7501 23.3427 18.7501 25.0003C18.7501 26.6579 19.4086 28.2476 20.5807 29.4197C21.7528 30.5918 23.3425 31.2503 25.0001 31.2503C26.6577 31.2503 28.2474 30.5918 29.4195 29.4197C30.5916 28.2476 31.2501 26.6579 31.2501 25.0003C31.2501 23.3427 30.5916 21.753 29.4195 20.5809C28.2474 19.4088 26.6577 18.7503 25.0001 18.7503Z" fill="black"/></svg>