<svg xmlns="http://www.w3.org/2000/svg" width="50" height="50" viewBox="0 0 50 50" fill="none"><path d="M14.4583 10.4168C14.4578 11.5219 14.0183 12.5815 13.2365 13.3625C12.4547 14.1435 11.3947 14.5819 10.2896 14.5814C9.18451 14.5808 8.12493 14.1413 7.34392 13.3595C6.5629 12.5777 6.12445 11.5177 6.125 10.4126C6.12555 9.30756 6.56507 8.24797 7.34686 7.46696C8.12865 6.68595 9.18868 6.24749 10.2938 6.24805C11.3988 6.2486 12.4584 6.68812 13.2394 7.46991C14.0204 8.2517 14.4589 9.31173 14.4583 10.4168ZM14.5833 17.6668H6.25V43.7501H14.5833V17.6668ZM27.75 17.6668H19.4583V43.7501H27.6667V30.0626C27.6667 22.4376 37.6042 21.7293 37.6042 30.0626V43.7501H45.8333V27.2293C45.8333 14.3751 31.125 14.8543 27.6667 21.1668L27.75 17.6668Z" fill="black"/></svg>